<svg xmlns="http://www.w3.org/2000/svg" width="800" height="1000" viewBox="0 0 800 1000" fill="none">
  <defs>
    <radialGradient id="bg3" cx="35%" cy="28%" r="90%">
      <stop offset="0%" stop-color="#FBBF24" stop-opacity="0.55"/>
      <stop offset="45%" stop-color="#34D399" stop-opacity="0.22"/>
      <stop offset="100%" stop-color="#0B0F19" stop-opacity="1"/>
    </radialGradient>
    <linearGradient id="ring3" x1="0" y1="0" x2="1" y2="1">
      <stop offset="0%" stop-color="#FBBF24"/>
      <stop offset="100%" stop-color="#34D399"/>
    </linearGradient>
  </defs>
  <rect width="800" height="1000" fill="#0B0F19"/>
  <rect width="800" height="1000" fill="url(#bg3)"/>
  <circle cx="360.4" cy="724.9" r="1.1" fill="#FBBF24" opacity="0.16"/><circle cx="397.6" cy="443.1" r="1.6" fill="#FBBF24" opacity="0.16"/><circle cx="628.9" cy="428.8" r="1.9" fill="#FBBF24" opacity="0.53"/><circle cx="66.9" cy="966.0" r="2.2" fill="#FBBF24" opacity="0.62"/><circle cx="183.0" cy="301.5" r="1.2" fill="#FBBF24" opacity="0.60"/><circle cx="552.7" cy="867.5" r="1.3" fill="#FBBF24" opacity="0.34"/><circle cx="632.6" cy="170.0" r="2.2" fill="#FBBF24" opacity="0.44"/><circle cx="472.2" cy="345.1" r="1.8" fill="#FBBF24" opacity="0.20"/><circle cx="357.9" cy="380.2" r="0.6" fill="#FBBF24" opacity="0.41"/><circle cx="190.9" cy="3.7" r="2.6" fill="#FBBF24" opacity="0.46"/><circle cx="198.4" cy="240.5" r="2.5" fill="#FBBF24" opacity="0.27"/><circle cx="578.0" cy="633.6" r="1.3" fill="#FBBF24" opacity="0.57"/><circle cx="75.2" cy="133.7" r="0.4" fill="#FBBF24" opacity="0.52"/><circle cx="695.0" cy="654.4" r="0.4" fill="#FBBF24" opacity="0.16"/><circle cx="146.1" cy="294.5" r="2.6" fill="#FBBF24" opacity="0.16"/><circle cx="18.7" cy="226.7" r="1.6" fill="#FBBF24" opacity="0.46"/><circle cx="95.3" cy="253.5" r="1.4" fill="#FBBF24" opacity="0.20"/><circle cx="395.8" cy="29.4" r="1.6" fill="#FBBF24" opacity="0.50"/><circle cx="554.8" cy="949.3" r="1.1" fill="#FBBF24" opacity="0.59"/><circle cx="532.6" cy="704.5" r="0.4" fill="#FBBF24" opacity="0.21"/><circle cx="260.3" cy="505.1" r="2.1" fill="#FBBF24" opacity="0.44"/><circle cx="616.8" cy="968.1" r="2.4" fill="#FBBF24" opacity="0.26"/><circle cx="140.3" cy="674.0" r="1.1" fill="#FBBF24" opacity="0.55"/><circle cx="272.9" cy="388.1" r="0.9" fill="#FBBF24" opacity="0.31"/><circle cx="738.0" cy="950.0" r="0.4" fill="#FBBF24" opacity="0.31"/><circle cx="251.7" cy="828.7" r="2.6" fill="#FBBF24" opacity="0.53"/><circle cx="167.0" cy="345.3" r="1.9" fill="#FBBF24" opacity="0.43"/><circle cx="651.9" cy="561.5" r="1.0" fill="#FBBF24" opacity="0.55"/><circle cx="600.2" cy="835.2" r="2.0" fill="#FBBF24" opacity="0.49"/><circle cx="476.0" cy="43.2" r="2.1" fill="#FBBF24" opacity="0.65"/><circle cx="91.7" cy="469.2" r="1.4" fill="#FBBF24" opacity="0.34"/><circle cx="119.0" cy="360.3" r="1.0" fill="#FBBF24" opacity="0.27"/><circle cx="133.1" cy="148.5" r="0.8" fill="#FBBF24" opacity="0.29"/><circle cx="390.8" cy="340.0" r="0.6" fill="#FBBF24" opacity="0.49"/><circle cx="141.5" cy="70.5" r="0.8" fill="#FBBF24" opacity="0.20"/><circle cx="471.6" cy="327.8" r="1.5" fill="#FBBF24" opacity="0.19"/><circle cx="482.4" cy="840.3" r="2.5" fill="#FBBF24" opacity="0.35"/><circle cx="401.0" cy="632.6" r="0.7" fill="#FBBF24" opacity="0.60"/><circle cx="425.0" cy="248.0" r="1.5" fill="#FBBF24" opacity="0.18"/><circle cx="100.0" cy="637.0" r="1.8" fill="#FBBF24" opacity="0.25"/><circle cx="630.9" cy="713.2" r="2.3" fill="#FBBF24" opacity="0.33"/><circle cx="526.5" cy="575.5" r="2.1" fill="#FBBF24" opacity="0.60"/><circle cx="576.8" cy="396.6" r="2.3" fill="#FBBF24" opacity="0.51"/><circle cx="564.6" cy="979.0" r="0.4" fill="#FBBF24" opacity="0.20"/><circle cx="509.5" cy="977.1" r="2.6" fill="#FBBF24" opacity="0.28"/><circle cx="46.2" cy="785.8" r="1.0" fill="#FBBF24" opacity="0.48"/><circle cx="735.2" cy="96.7" r="0.9" fill="#FBBF24" opacity="0.55"/><circle cx="107.3" cy="119.4" r="2.3" fill="#FBBF24" opacity="0.55"/><circle cx="641.6" cy="471.4" r="1.6" fill="#FBBF24" opacity="0.49"/><circle cx="76.3" cy="732.8" r="0.8" fill="#FBBF24" opacity="0.22"/><circle cx="653.3" cy="669.2" r="0.4" fill="#FBBF24" opacity="0.25"/><circle cx="496.2" cy="119.9" r="1.1" fill="#FBBF24" opacity="0.37"/><circle cx="721.0" cy="554.2" r="1.5" fill="#FBBF24" opacity="0.53"/><circle cx="280.8" cy="293.0" r="0.7" fill="#FBBF24" opacity="0.21"/><circle cx="143.4" cy="398.0" r="1.0" fill="#FBBF24" opacity="0.45"/><circle cx="2.8" cy="227.4" r="2.5" fill="#FBBF24" opacity="0.33"/><circle cx="323.0" cy="657.5" r="2.3" fill="#FBBF24" opacity="0.26"/><circle cx="116.5" cy="972.5" r="0.6" fill="#FBBF24" opacity="0.56"/><circle cx="54.9" cy="419.1" r="0.7" fill="#FBBF24" opacity="0.44"/><circle cx="513.4" cy="429.5" r="2.4" fill="#FBBF24" opacity="0.23"/>
  <circle cx="400" cy="440" r="190" fill="none" stroke="url(#ring3)" stroke-width="3" opacity="0.55"/>
  <circle cx="400" cy="440" r="150" fill="rgba(255,255,255,0.05)"/>
  <text x="400" y="440" text-anchor="middle" dominant-baseline="central"
        font-family="'Space Grotesk', sans-serif" font-size="180" font-weight="700" fill="#E8EAED">D</text>
  <text x="400" y="770" text-anchor="middle"
        font-family="'Space Grotesk', sans-serif" font-size="58" font-weight="600" fill="#E8EAED">Devendra</text>
  <text x="400" y="825" text-anchor="middle"
        font-family="'Space Grotesk', sans-serif" font-size="34" font-weight="500" fill="#FBBF24" letter-spacing="6">“DHOTE”</text>
  <text x="400" y="910" text-anchor="middle"
        font-family="Inter, sans-serif" font-size="24" fill="#94A3B8">Drop your photo → public/assets/member4.jpg</text>
</svg>