<svg xmlns="http://www.w3.org/2000/svg" width="800" height="1000" viewBox="0 0 800 1000" fill="none">
  <defs>
    <radialGradient id="bg0" cx="35%" cy="28%" r="90%">
      <stop offset="0%" stop-color="#34D399" stop-opacity="0.55"/>
      <stop offset="45%" stop-color="#0EA5E9" stop-opacity="0.22"/>
      <stop offset="100%" stop-color="#0B0F19" stop-opacity="1"/>
    </radialGradient>
    <linearGradient id="ring0" x1="0" y1="0" x2="1" y2="1">
      <stop offset="0%" stop-color="#34D399"/>
      <stop offset="100%" stop-color="#0EA5E9"/>
    </linearGradient>
  </defs>
  <rect width="800" height="1000" fill="#0B0F19"/>
  <rect width="800" height="1000" fill="url(#bg0)"/>
  <circle cx="264.7" cy="217.2" r="2.5" fill="#FBBF24" opacity="0.34"/><circle cx="526.6" cy="253.3" r="2.5" fill="#FBBF24" opacity="0.37"/><circle cx="301.2" cy="482.8" r="2.5" fill="#FBBF24" opacity="0.51"/><circle cx="289.7" cy="634.2" r="1.9" fill="#FBBF24" opacity="0.16"/><circle cx="719.5" cy="732.0" r="2.3" fill="#FBBF24" opacity="0.23"/><circle cx="187.9" cy="319.6" r="2.2" fill="#FBBF24" opacity="0.46"/><circle cx="640.6" cy="347.5" r="1.1" fill="#FBBF24" opacity="0.51"/><circle cx="82.7" cy="729.3" r="1.5" fill="#FBBF24" opacity="0.41"/><circle cx="222.7" cy="563.8" r="0.5" fill="#FBBF24" opacity="0.34"/><circle cx="250.8" cy="23.8" r="1.4" fill="#FBBF24" opacity="0.24"/><circle cx="749.7" cy="911.8" r="1.6" fill="#FBBF24" opacity="0.24"/><circle cx="139.1" cy="882.1" r="0.8" fill="#FBBF24" opacity="0.48"/><circle cx="453.6" cy="329.7" r="2.1" fill="#FBBF24" opacity="0.16"/><circle cx="53.6" cy="946.1" r="1.9" fill="#FBBF24" opacity="0.55"/><circle cx="470.2" cy="941.1" r="2.5" fill="#FBBF24" opacity="0.21"/><circle cx="182.2" cy="931.9" r="2.5" fill="#FBBF24" opacity="0.63"/><circle cx="128.0" cy="498.9" r="1.6" fill="#FBBF24" opacity="0.18"/><circle cx="149.5" cy="407.5" r="0.5" fill="#FBBF24" opacity="0.36"/><circle cx="770.2" cy="497.1" r="1.8" fill="#FBBF24" opacity="0.46"/><circle cx="706.1" cy="236.9" r="2.2" fill="#FBBF24" opacity="0.45"/><circle cx="510.3" cy="947.9" r="0.5" fill="#FBBF24" opacity="0.28"/><circle cx="350.7" cy="691.9" r="1.5" fill="#FBBF24" opacity="0.50"/><circle cx="721.2" cy="826.8" r="0.8" fill="#FBBF24" opacity="0.20"/><circle cx="485.9" cy="229.2" r="2.0" fill="#FBBF24" opacity="0.29"/><circle cx="257.2" cy="183.0" r="0.9" fill="#FBBF24" opacity="0.58"/><circle cx="706.7" cy="935.2" r="0.9" fill="#FBBF24" opacity="0.27"/><circle cx="609.6" cy="917.8" r="1.9" fill="#FBBF24" opacity="0.22"/><circle cx="222.9" cy="637.1" r="1.5" fill="#FBBF24" opacity="0.52"/><circle cx="395.8" cy="228.7" r="2.0" fill="#FBBF24" opacity="0.49"/><circle cx="614.9" cy="680.5" r="1.8" fill="#FBBF24" opacity="0.41"/><circle cx="781.2" cy="720.8" r="2.4" fill="#FBBF24" opacity="0.17"/><circle cx="322.0" cy="374.2" r="1.1" fill="#FBBF24" opacity="0.19"/><circle cx="234.9" cy="184.0" r="0.8" fill="#FBBF24" opacity="0.20"/><circle cx="65.4" cy="100.7" r="0.9" fill="#FBBF24" opacity="0.36"/><circle cx="218.6" cy="38.1" r="1.8" fill="#FBBF24" opacity="0.21"/><circle cx="3.1" cy="94.8" r="0.5" fill="#FBBF24" opacity="0.41"/><circle cx="208.9" cy="443.7" r="0.4" fill="#FBBF24" opacity="0.42"/><circle cx="618.9" cy="887.2" r="1.1" fill="#FBBF24" opacity="0.37"/><circle cx="452.8" cy="79.7" r="2.3" fill="#FBBF24" opacity="0.38"/><circle cx="145.0" cy="416.3" r="2.6" fill="#FBBF24" opacity="0.18"/><circle cx="456.2" cy="588.2" r="0.7" fill="#FBBF24" opacity="0.51"/><circle cx="517.2" cy="805.4" r="1.0" fill="#FBBF24" opacity="0.45"/><circle cx="407.1" cy="685.2" r="2.2" fill="#FBBF24" opacity="0.48"/><circle cx="263.9" cy="807.7" r="1.8" fill="#FBBF24" opacity="0.47"/><circle cx="729.9" cy="938.5" r="0.5" fill="#FBBF24" opacity="0.44"/><circle cx="728.3" cy="917.0" r="0.8" fill="#FBBF24" opacity="0.65"/><circle cx="575.3" cy="212.4" r="1.7" fill="#FBBF24" opacity="0.58"/><circle cx="24.0" cy="145.6" r="2.0" fill="#FBBF24" opacity="0.18"/><circle cx="42.2" cy="778.5" r="2.0" fill="#FBBF24" opacity="0.52"/><circle cx="323.8" cy="468.9" r="1.7" fill="#FBBF24" opacity="0.16"/><circle cx="532.9" cy="93.5" r="0.5" fill="#FBBF24" opacity="0.52"/><circle cx="482.0" cy="936.2" r="0.7" fill="#FBBF24" opacity="0.43"/><circle cx="42.6" cy="244.0" r="1.2" fill="#FBBF24" opacity="0.57"/><circle cx="390.0" cy="448.8" r="1.9" fill="#FBBF24" opacity="0.29"/><circle cx="181.0" cy="57.0" r="0.5" fill="#FBBF24" opacity="0.21"/><circle cx="265.1" cy="204.2" r="1.6" fill="#FBBF24" opacity="0.62"/><circle cx="128.6" cy="878.2" r="1.0" fill="#FBBF24" opacity="0.32"/><circle cx="472.7" cy="807.3" r="0.7" fill="#FBBF24" opacity="0.19"/><circle cx="724.6" cy="16.3" r="2.1" fill="#FBBF24" opacity="0.15"/><circle cx="281.9" cy="48.3" r="1.5" fill="#FBBF24" opacity="0.44"/>
  <circle cx="400" cy="440" r="190" fill="none" stroke="url(#ring0)" stroke-width="3" opacity="0.55"/>
  <circle cx="400" cy="440" r="150" fill="rgba(255,255,255,0.05)"/>
  <text x="400" y="440" text-anchor="middle" dominant-baseline="central"
        font-family="'Space Grotesk', sans-serif" font-size="180" font-weight="700" fill="#E8EAED">A</text>
  <text x="400" y="770" text-anchor="middle"
        font-family="'Space Grotesk', sans-serif" font-size="58" font-weight="600" fill="#E8EAED">Ashutosh</text>
  <text x="400" y="825" text-anchor="middle"
        font-family="'Space Grotesk', sans-serif" font-size="34" font-weight="500" fill="#34D399" letter-spacing="6">“DHONGI”</text>
  <text x="400" y="910" text-anchor="middle"
        font-family="Inter, sans-serif" font-size="24" fill="#94A3B8">Drop your photo → public/assets/member1.jpg</text>
</svg>