<svg xmlns="http://www.w3.org/2000/svg" width="800" height="1000" viewBox="0 0 800 1000" fill="none">
  <defs>
    <radialGradient id="bg1" cx="35%" cy="28%" r="90%">
      <stop offset="0%" stop-color="#FBBF24" stop-opacity="0.55"/>
      <stop offset="45%" stop-color="#F97316" stop-opacity="0.22"/>
      <stop offset="100%" stop-color="#0B0F19" stop-opacity="1"/>
    </radialGradient>
    <linearGradient id="ring1" x1="0" y1="0" x2="1" y2="1">
      <stop offset="0%" stop-color="#FBBF24"/>
      <stop offset="100%" stop-color="#F97316"/>
    </linearGradient>
  </defs>
  <rect width="800" height="1000" fill="#0B0F19"/>
  <rect width="800" height="1000" fill="url(#bg1)"/>
  <circle cx="296.6" cy="53.1" r="2.0" fill="#FBBF24" opacity="0.45"/><circle cx="483.6" cy="316.6" r="1.5" fill="#FBBF24" opacity="0.30"/><circle cx="143.7" cy="464.8" r="1.6" fill="#FBBF24" opacity="0.52"/><circle cx="748.8" cy="744.8" r="1.3" fill="#FBBF24" opacity="0.31"/><circle cx="274.0" cy="588.5" r="0.5" fill="#FBBF24" opacity="0.52"/><circle cx="576.1" cy="502.2" r="1.2" fill="#FBBF24" opacity="0.26"/><circle cx="104.6" cy="621.7" r="1.4" fill="#FBBF24" opacity="0.32"/><circle cx="745.9" cy="934.6" r="1.6" fill="#FBBF24" opacity="0.51"/><circle cx="1.1" cy="169.2" r="1.2" fill="#FBBF24" opacity="0.20"/><circle cx="497.5" cy="350.4" r="1.8" fill="#FBBF24" opacity="0.31"/><circle cx="32.6" cy="21.3" r="1.9" fill="#FBBF24" opacity="0.58"/><circle cx="552.0" cy="132.6" r="0.9" fill="#FBBF24" opacity="0.18"/><circle cx="60.8" cy="597.7" r="1.5" fill="#FBBF24" opacity="0.62"/><circle cx="267.4" cy="515.5" r="0.7" fill="#FBBF24" opacity="0.59"/><circle cx="362.2" cy="58.9" r="1.8" fill="#FBBF24" opacity="0.52"/><circle cx="127.7" cy="30.2" r="2.2" fill="#FBBF24" opacity="0.57"/><circle cx="383.8" cy="83.8" r="1.5" fill="#FBBF24" opacity="0.35"/><circle cx="764.9" cy="614.8" r="0.9" fill="#FBBF24" opacity="0.58"/><circle cx="431.7" cy="314.5" r="0.8" fill="#FBBF24" opacity="0.51"/><circle cx="114.9" cy="392.8" r="1.6" fill="#FBBF24" opacity="0.20"/><circle cx="693.6" cy="467.0" r="1.8" fill="#FBBF24" opacity="0.17"/><circle cx="706.1" cy="117.3" r="1.1" fill="#FBBF24" opacity="0.26"/><circle cx="794.2" cy="109.2" r="2.3" fill="#FBBF24" opacity="0.49"/><circle cx="681.6" cy="282.2" r="1.7" fill="#FBBF24" opacity="0.63"/><circle cx="684.1" cy="105.3" r="2.2" fill="#FBBF24" opacity="0.15"/><circle cx="555.0" cy="899.7" r="0.8" fill="#FBBF24" opacity="0.53"/><circle cx="462.1" cy="727.0" r="1.9" fill="#FBBF24" opacity="0.29"/><circle cx="99.2" cy="945.2" r="1.3" fill="#FBBF24" opacity="0.53"/><circle cx="730.6" cy="430.9" r="0.6" fill="#FBBF24" opacity="0.16"/><circle cx="568.6" cy="468.1" r="1.9" fill="#FBBF24" opacity="0.49"/><circle cx="284.7" cy="303.6" r="2.1" fill="#FBBF24" opacity="0.23"/><circle cx="254.4" cy="369.5" r="1.0" fill="#FBBF24" opacity="0.22"/><circle cx="734.3" cy="172.1" r="0.8" fill="#FBBF24" opacity="0.56"/><circle cx="173.9" cy="847.1" r="1.5" fill="#FBBF24" opacity="0.57"/><circle cx="459.6" cy="382.2" r="1.4" fill="#FBBF24" opacity="0.54"/><circle cx="692.6" cy="505.8" r="2.3" fill="#FBBF24" opacity="0.34"/><circle cx="300.1" cy="242.6" r="1.1" fill="#FBBF24" opacity="0.40"/><circle cx="279.6" cy="135.7" r="1.0" fill="#FBBF24" opacity="0.45"/><circle cx="176.8" cy="135.8" r="1.3" fill="#FBBF24" opacity="0.65"/><circle cx="396.7" cy="156.5" r="2.3" fill="#FBBF24" opacity="0.54"/><circle cx="247.8" cy="296.5" r="1.2" fill="#FBBF24" opacity="0.28"/><circle cx="520.3" cy="728.8" r="1.4" fill="#FBBF24" opacity="0.33"/><circle cx="197.0" cy="255.6" r="2.3" fill="#FBBF24" opacity="0.32"/><circle cx="97.5" cy="531.5" r="1.4" fill="#FBBF24" opacity="0.38"/><circle cx="656.4" cy="951.3" r="1.9" fill="#FBBF24" opacity="0.22"/><circle cx="234.3" cy="206.6" r="2.4" fill="#FBBF24" opacity="0.59"/><circle cx="362.0" cy="507.1" r="0.7" fill="#FBBF24" opacity="0.57"/><circle cx="318.4" cy="470.2" r="2.1" fill="#FBBF24" opacity="0.64"/><circle cx="242.0" cy="676.1" r="1.9" fill="#FBBF24" opacity="0.17"/><circle cx="774.6" cy="890.2" r="0.7" fill="#FBBF24" opacity="0.18"/><circle cx="39.7" cy="952.1" r="1.2" fill="#FBBF24" opacity="0.43"/><circle cx="753.4" cy="330.8" r="2.3" fill="#FBBF24" opacity="0.41"/><circle cx="268.7" cy="347.4" r="0.6" fill="#FBBF24" opacity="0.56"/><circle cx="353.6" cy="63.5" r="0.8" fill="#FBBF24" opacity="0.43"/><circle cx="701.8" cy="837.3" r="0.7" fill="#FBBF24" opacity="0.62"/><circle cx="177.6" cy="545.3" r="1.9" fill="#FBBF24" opacity="0.52"/><circle cx="193.4" cy="471.3" r="2.2" fill="#FBBF24" opacity="0.47"/><circle cx="620.6" cy="862.4" r="0.7" fill="#FBBF24" opacity="0.65"/><circle cx="234.7" cy="150.6" r="1.6" fill="#FBBF24" opacity="0.41"/><circle cx="92.4" cy="842.0" r="2.6" fill="#FBBF24" opacity="0.37"/>
  <circle cx="400" cy="440" r="190" fill="none" stroke="url(#ring1)" stroke-width="3" opacity="0.55"/>
  <circle cx="400" cy="440" r="150" fill="rgba(255,255,255,0.05)"/>
  <text x="400" y="440" text-anchor="middle" dominant-baseline="central"
        font-family="'Space Grotesk', sans-serif" font-size="180" font-weight="700" fill="#E8EAED">S</text>
  <text x="400" y="770" text-anchor="middle"
        font-family="'Space Grotesk', sans-serif" font-size="58" font-weight="600" fill="#E8EAED">Shivam</text>
  <text x="400" y="825" text-anchor="middle"
        font-family="'Space Grotesk', sans-serif" font-size="34" font-weight="500" fill="#FBBF24" letter-spacing="6">“BIHARI”</text>
  <text x="400" y="910" text-anchor="middle"
        font-family="Inter, sans-serif" font-size="24" fill="#94A3B8">Drop your photo → public/assets/member2.jpg</text>
</svg>