<svg xmlns="http://www.w3.org/2000/svg" width="800" height="1000" viewBox="0 0 800 1000" fill="none">
  <defs>
    <radialGradient id="bg2" cx="35%" cy="28%" r="90%">
      <stop offset="0%" stop-color="#34D399" stop-opacity="0.55"/>
      <stop offset="45%" stop-color="#A855F7" stop-opacity="0.22"/>
      <stop offset="100%" stop-color="#0B0F19" stop-opacity="1"/>
    </radialGradient>
    <linearGradient id="ring2" x1="0" y1="0" x2="1" y2="1">
      <stop offset="0%" stop-color="#34D399"/>
      <stop offset="100%" stop-color="#A855F7"/>
    </linearGradient>
  </defs>
  <rect width="800" height="1000" fill="#0B0F19"/>
  <rect width="800" height="1000" fill="url(#bg2)"/>
  <circle cx="328.5" cy="889.0" r="1.6" fill="#FBBF24" opacity="0.56"/><circle cx="440.6" cy="379.8" r="0.4" fill="#FBBF24" opacity="0.23"/><circle cx="786.3" cy="446.8" r="0.7" fill="#FBBF24" opacity="0.53"/><circle cx="407.8" cy="855.4" r="0.6" fill="#FBBF24" opacity="0.46"/><circle cx="628.5" cy="445.0" r="0.9" fill="#FBBF24" opacity="0.31"/><circle cx="164.4" cy="684.8" r="2.4" fill="#FBBF24" opacity="0.55"/><circle cx="368.6" cy="895.9" r="1.8" fill="#FBBF24" opacity="0.63"/><circle cx="609.0" cy="139.8" r="1.7" fill="#FBBF24" opacity="0.60"/><circle cx="579.5" cy="774.7" r="2.0" fill="#FBBF24" opacity="0.55"/><circle cx="744.2" cy="677.1" r="2.2" fill="#FBBF24" opacity="0.39"/><circle cx="115.5" cy="130.9" r="2.2" fill="#FBBF24" opacity="0.43"/><circle cx="165.0" cy="383.1" r="1.1" fill="#FBBF24" opacity="0.37"/><circle cx="468.0" cy="865.7" r="1.0" fill="#FBBF24" opacity="0.57"/><circle cx="481.2" cy="85.0" r="1.6" fill="#FBBF24" opacity="0.62"/><circle cx="254.2" cy="176.7" r="1.1" fill="#FBBF24" opacity="0.34"/><circle cx="73.2" cy="128.4" r="1.9" fill="#FBBF24" opacity="0.51"/><circle cx="639.5" cy="668.7" r="1.5" fill="#FBBF24" opacity="0.52"/><circle cx="580.4" cy="822.1" r="1.2" fill="#FBBF24" opacity="0.29"/><circle cx="93.2" cy="131.9" r="2.0" fill="#FBBF24" opacity="0.55"/><circle cx="323.8" cy="548.7" r="1.0" fill="#FBBF24" opacity="0.46"/><circle cx="77.0" cy="986.0" r="0.8" fill="#FBBF24" opacity="0.55"/><circle cx="261.4" cy="542.7" r="0.6" fill="#FBBF24" opacity="0.51"/><circle cx="67.3" cy="391.6" r="1.7" fill="#FBBF24" opacity="0.27"/><circle cx="77.2" cy="335.1" r="1.3" fill="#FBBF24" opacity="0.47"/><circle cx="311.1" cy="27.7" r="1.3" fill="#FBBF24" opacity="0.23"/><circle cx="403.4" cy="864.2" r="0.6" fill="#FBBF24" opacity="0.28"/><circle cx="314.6" cy="536.1" r="1.9" fill="#FBBF24" opacity="0.36"/><circle cx="775.6" cy="253.3" r="1.2" fill="#FBBF24" opacity="0.54"/><circle cx="265.4" cy="633.1" r="1.3" fill="#FBBF24" opacity="0.33"/><circle cx="522.3" cy="255.6" r="2.0" fill="#FBBF24" opacity="0.57"/><circle cx="588.2" cy="886.4" r="1.7" fill="#FBBF24" opacity="0.28"/><circle cx="186.7" cy="364.9" r="1.0" fill="#FBBF24" opacity="0.24"/><circle cx="433.7" cy="160.3" r="0.8" fill="#FBBF24" opacity="0.43"/><circle cx="282.3" cy="593.5" r="2.2" fill="#FBBF24" opacity="0.28"/><circle cx="700.5" cy="726.4" r="1.1" fill="#FBBF24" opacity="0.37"/><circle cx="582.1" cy="916.8" r="1.9" fill="#FBBF24" opacity="0.26"/><circle cx="391.3" cy="41.4" r="1.8" fill="#FBBF24" opacity="0.37"/><circle cx="740.3" cy="384.2" r="0.9" fill="#FBBF24" opacity="0.53"/><circle cx="700.9" cy="191.9" r="2.5" fill="#FBBF24" opacity="0.42"/><circle cx="648.3" cy="896.7" r="2.1" fill="#FBBF24" opacity="0.39"/><circle cx="39.4" cy="4.9" r="1.8" fill="#FBBF24" opacity="0.56"/><circle cx="523.4" cy="652.1" r="1.7" fill="#FBBF24" opacity="0.22"/><circle cx="786.9" cy="826.1" r="2.3" fill="#FBBF24" opacity="0.17"/><circle cx="731.0" cy="255.2" r="0.9" fill="#FBBF24" opacity="0.29"/><circle cx="583.0" cy="964.2" r="1.1" fill="#FBBF24" opacity="0.50"/><circle cx="540.3" cy="496.2" r="1.7" fill="#FBBF24" opacity="0.54"/><circle cx="148.6" cy="801.9" r="1.9" fill="#FBBF24" opacity="0.56"/><circle cx="612.9" cy="794.8" r="2.2" fill="#FBBF24" opacity="0.60"/><circle cx="441.8" cy="573.7" r="1.7" fill="#FBBF24" opacity="0.33"/><circle cx="425.4" cy="311.5" r="1.8" fill="#FBBF24" opacity="0.20"/><circle cx="346.5" cy="810.6" r="1.9" fill="#FBBF24" opacity="0.34"/><circle cx="224.8" cy="725.3" r="1.7" fill="#FBBF24" opacity="0.39"/><circle cx="494.8" cy="450.8" r="2.2" fill="#FBBF24" opacity="0.54"/><circle cx="317.2" cy="678.3" r="1.8" fill="#FBBF24" opacity="0.57"/><circle cx="422.6" cy="617.7" r="0.8" fill="#FBBF24" opacity="0.53"/><circle cx="90.2" cy="886.3" r="2.2" fill="#FBBF24" opacity="0.42"/><circle cx="258.2" cy="64.4" r="1.2" fill="#FBBF24" opacity="0.61"/><circle cx="768.6" cy="917.4" r="0.6" fill="#FBBF24" opacity="0.61"/><circle cx="544.8" cy="284.8" r="1.1" fill="#FBBF24" opacity="0.18"/><circle cx="702.9" cy="635.8" r="1.4" fill="#FBBF24" opacity="0.30"/>
  <circle cx="400" cy="440" r="190" fill="none" stroke="url(#ring2)" stroke-width="3" opacity="0.55"/>
  <circle cx="400" cy="440" r="150" fill="rgba(255,255,255,0.05)"/>
  <text x="400" y="440" text-anchor="middle" dominant-baseline="central"
        font-family="'Space Grotesk', sans-serif" font-size="180" font-weight="700" fill="#E8EAED">S</text>
  <text x="400" y="770" text-anchor="middle"
        font-family="'Space Grotesk', sans-serif" font-size="58" font-weight="600" fill="#E8EAED">Sumit</text>
  <text x="400" y="825" text-anchor="middle"
        font-family="'Space Grotesk', sans-serif" font-size="34" font-weight="500" fill="#34D399" letter-spacing="6">“BHABHORA”</text>
  <text x="400" y="910" text-anchor="middle"
        font-family="Inter, sans-serif" font-size="24" fill="#94A3B8">Drop your photo → public/assets/member3.jpg</text>
</svg>