<svg xmlns="http://www.w3.org/2000/svg" width="800" height="1000" viewBox="0 0 800 1000" fill="none">
  <defs>
    <radialGradient id="bg4" cx="35%" cy="28%" r="90%">
      <stop offset="0%" stop-color="#F472B6" stop-opacity="0.55"/>
      <stop offset="45%" stop-color="#FBBF24" stop-opacity="0.22"/>
      <stop offset="100%" stop-color="#0B0F19" stop-opacity="1"/>
    </radialGradient>
    <linearGradient id="ring4" x1="0" y1="0" x2="1" y2="1">
      <stop offset="0%" stop-color="#F472B6"/>
      <stop offset="100%" stop-color="#FBBF24"/>
    </linearGradient>
  </defs>
  <rect width="800" height="1000" fill="#0B0F19"/>
  <rect width="800" height="1000" fill="url(#bg4)"/>
  <circle cx="392.3" cy="560.8" r="0.7" fill="#FBBF24" opacity="0.27"/><circle cx="354.6" cy="506.4" r="0.6" fill="#FBBF24" opacity="0.59"/><circle cx="471.5" cy="410.8" r="1.0" fill="#FBBF24" opacity="0.54"/><circle cx="526.0" cy="76.6" r="1.5" fill="#FBBF24" opacity="0.27"/><circle cx="537.6" cy="158.0" r="1.6" fill="#FBBF24" opacity="0.39"/><circle cx="141.0" cy="50.1" r="2.5" fill="#FBBF24" opacity="0.63"/><circle cx="96.6" cy="444.2" r="2.5" fill="#FBBF24" opacity="0.24"/><circle cx="335.4" cy="550.3" r="1.9" fill="#FBBF24" opacity="0.29"/><circle cx="136.3" cy="985.6" r="1.4" fill="#FBBF24" opacity="0.27"/><circle cx="437.6" cy="330.4" r="0.7" fill="#FBBF24" opacity="0.54"/><circle cx="281.4" cy="350.1" r="0.6" fill="#FBBF24" opacity="0.61"/><circle cx="190.9" cy="884.1" r="1.4" fill="#FBBF24" opacity="0.27"/><circle cx="482.4" cy="401.7" r="2.1" fill="#FBBF24" opacity="0.48"/><circle cx="108.8" cy="223.9" r="1.4" fill="#FBBF24" opacity="0.20"/><circle cx="38.1" cy="412.3" r="1.9" fill="#FBBF24" opacity="0.47"/><circle cx="764.1" cy="324.9" r="1.4" fill="#FBBF24" opacity="0.40"/><circle cx="351.1" cy="838.4" r="1.4" fill="#FBBF24" opacity="0.37"/><circle cx="211.2" cy="236.7" r="2.0" fill="#FBBF24" opacity="0.22"/><circle cx="216.3" cy="766.7" r="2.3" fill="#FBBF24" opacity="0.63"/><circle cx="741.5" cy="860.4" r="2.0" fill="#FBBF24" opacity="0.47"/><circle cx="443.6" cy="24.1" r="1.1" fill="#FBBF24" opacity="0.33"/><circle cx="172.1" cy="393.6" r="1.9" fill="#FBBF24" opacity="0.52"/><circle cx="213.4" cy="956.4" r="0.4" fill="#FBBF24" opacity="0.33"/><circle cx="468.6" cy="441.1" r="0.6" fill="#FBBF24" opacity="0.65"/><circle cx="365.0" cy="872.3" r="1.7" fill="#FBBF24" opacity="0.38"/><circle cx="100.1" cy="793.2" r="2.4" fill="#FBBF24" opacity="0.28"/><circle cx="19.5" cy="154.4" r="2.0" fill="#FBBF24" opacity="0.50"/><circle cx="528.3" cy="869.6" r="0.9" fill="#FBBF24" opacity="0.57"/><circle cx="134.9" cy="37.4" r="0.6" fill="#FBBF24" opacity="0.16"/><circle cx="429.7" cy="830.7" r="2.3" fill="#FBBF24" opacity="0.22"/><circle cx="395.2" cy="52.0" r="1.0" fill="#FBBF24" opacity="0.39"/><circle cx="51.3" cy="355.7" r="0.9" fill="#FBBF24" opacity="0.30"/><circle cx="632.4" cy="136.6" r="0.8" fill="#FBBF24" opacity="0.15"/><circle cx="499.2" cy="86.4" r="1.3" fill="#FBBF24" opacity="0.20"/><circle cx="382.4" cy="414.7" r="0.4" fill="#FBBF24" opacity="0.53"/><circle cx="361.1" cy="738.9" r="1.1" fill="#FBBF24" opacity="0.62"/><circle cx="573.6" cy="639.2" r="1.0" fill="#FBBF24" opacity="0.33"/><circle cx="61.7" cy="881.1" r="0.6" fill="#FBBF24" opacity="0.18"/><circle cx="149.1" cy="304.0" r="0.5" fill="#FBBF24" opacity="0.45"/><circle cx="351.6" cy="377.2" r="1.6" fill="#FBBF24" opacity="0.60"/><circle cx="422.5" cy="421.6" r="0.7" fill="#FBBF24" opacity="0.60"/><circle cx="529.6" cy="498.8" r="2.4" fill="#FBBF24" opacity="0.49"/><circle cx="366.7" cy="967.1" r="2.3" fill="#FBBF24" opacity="0.36"/><circle cx="398.1" cy="702.8" r="2.1" fill="#FBBF24" opacity="0.61"/><circle cx="436.1" cy="989.9" r="1.8" fill="#FBBF24" opacity="0.56"/><circle cx="352.2" cy="75.5" r="2.5" fill="#FBBF24" opacity="0.43"/><circle cx="521.9" cy="391.4" r="2.1" fill="#FBBF24" opacity="0.54"/><circle cx="401.8" cy="444.0" r="2.3" fill="#FBBF24" opacity="0.51"/><circle cx="41.4" cy="369.0" r="1.4" fill="#FBBF24" opacity="0.65"/><circle cx="527.1" cy="154.1" r="1.9" fill="#FBBF24" opacity="0.23"/><circle cx="160.1" cy="527.7" r="1.1" fill="#FBBF24" opacity="0.16"/><circle cx="767.6" cy="514.4" r="0.5" fill="#FBBF24" opacity="0.34"/><circle cx="147.1" cy="657.6" r="0.9" fill="#FBBF24" opacity="0.52"/><circle cx="244.3" cy="907.7" r="1.7" fill="#FBBF24" opacity="0.35"/><circle cx="664.2" cy="178.4" r="1.2" fill="#FBBF24" opacity="0.36"/><circle cx="715.3" cy="568.4" r="0.6" fill="#FBBF24" opacity="0.23"/><circle cx="387.8" cy="250.6" r="1.3" fill="#FBBF24" opacity="0.40"/><circle cx="264.5" cy="27.5" r="0.5" fill="#FBBF24" opacity="0.52"/><circle cx="365.0" cy="553.3" r="2.4" fill="#FBBF24" opacity="0.20"/><circle cx="323.9" cy="223.2" r="1.3" fill="#FBBF24" opacity="0.17"/>
  <circle cx="400" cy="440" r="190" fill="none" stroke="url(#ring4)" stroke-width="3" opacity="0.55"/>
  <circle cx="400" cy="440" r="150" fill="rgba(255,255,255,0.05)"/>
  <text x="400" y="440" text-anchor="middle" dominant-baseline="central"
        font-family="'Space Grotesk', sans-serif" font-size="180" font-weight="700" fill="#E8EAED">S</text>
  <text x="400" y="770" text-anchor="middle"
        font-family="'Space Grotesk', sans-serif" font-size="58" font-weight="600" fill="#E8EAED">Sujal</text>
  <text x="400" y="825" text-anchor="middle"
        font-family="'Space Grotesk', sans-serif" font-size="34" font-weight="500" fill="#F472B6" letter-spacing="6">“SUZZI”</text>
  <text x="400" y="910" text-anchor="middle"
        font-family="Inter, sans-serif" font-size="24" fill="#94A3B8">Drop your photo → public/assets/member5.jpg</text>
</svg>