<svg xmlns="http://www.w3.org/2000/svg" width="1200" height="900" viewBox="0 0 1200 900" fill="none">
  <defs>
    <filter id="b7" x="-30%" y="-30%" width="160%" height="160%"><feGaussianBlur stdDeviation="70"/></filter>
  </defs>
  <rect width="1200" height="900" fill="#0B0F19"/>
  <g filter="url(#b7)">
    <circle cx="620" cy="300" r="260" fill="#34D399" opacity="0.30"/>
    <circle cx="670" cy="640" r="300" fill="#0EA5E9" opacity="0.28"/>
    <circle cx="640" cy="180" r="180" fill="#34D399" opacity="0.18"/></g>
  <circle cx="1114.8" cy="680.2" r="2.3" fill="#FBBF24" opacity="0.45"/><circle cx="1022.3" cy="182.2" r="2.4" fill="#FBBF24" opacity="0.33"/><circle cx="510.1" cy="191.5" r="1.9" fill="#FBBF24" opacity="0.63"/><circle cx="1163.4" cy="263.9" r="0.8" fill="#FBBF24" opacity="0.44"/><circle cx="656.1" cy="521.4" r="1.4" fill="#FBBF24" opacity="0.59"/><circle cx="618.0" cy="53.0" r="2.0" fill="#FBBF24" opacity="0.36"/><circle cx="900.8" cy="414.2" r="2.0" fill="#FBBF24" opacity="0.63"/><circle cx="645.4" cy="727.3" r="0.7" fill="#FBBF24" opacity="0.33"/><circle cx="148.0" cy="581.1" r="1.2" fill="#FBBF24" opacity="0.19"/><circle cx="1127.2" cy="831.2" r="0.6" fill="#FBBF24" opacity="0.36"/><circle cx="590.3" cy="499.8" r="1.5" fill="#FBBF24" opacity="0.39"/><circle cx="1100.3" cy="575.8" r="1.0" fill="#FBBF24" opacity="0.44"/><circle cx="242.4" cy="314.8" r="2.5" fill="#FBBF24" opacity="0.46"/><circle cx="90.7" cy="439.0" r="1.1" fill="#FBBF24" opacity="0.59"/><circle cx="674.8" cy="637.3" r="0.8" fill="#FBBF24" opacity="0.45"/><circle cx="246.6" cy="365.2" r="0.5" fill="#FBBF24" opacity="0.26"/><circle cx="1146.7" cy="244.9" r="0.8" fill="#FBBF24" opacity="0.28"/><circle cx="871.6" cy="465.4" r="2.0" fill="#FBBF24" opacity="0.56"/><circle cx="739.6" cy="682.2" r="2.5" fill="#FBBF24" opacity="0.60"/><circle cx="958.3" cy="517.5" r="2.2" fill="#FBBF24" opacity="0.28"/><circle cx="90.5" cy="660.2" r="1.6" fill="#FBBF24" opacity="0.59"/><circle cx="121.5" cy="65.8" r="1.3" fill="#FBBF24" opacity="0.31"/><circle cx="325.4" cy="56.7" r="2.2" fill="#FBBF24" opacity="0.43"/><circle cx="331.7" cy="21.6" r="1.1" fill="#FBBF24" opacity="0.38"/><circle cx="392.3" cy="16.1" r="0.5" fill="#FBBF24" opacity="0.23"/><circle cx="48.0" cy="362.5" r="2.4" fill="#FBBF24" opacity="0.55"/><circle cx="1195.1" cy="49.7" r="2.0" fill="#FBBF24" opacity="0.26"/><circle cx="1152.0" cy="233.1" r="1.5" fill="#FBBF24" opacity="0.18"/><circle cx="926.2" cy="235.1" r="2.1" fill="#FBBF24" opacity="0.50"/><circle cx="1080.7" cy="444.5" r="1.4" fill="#FBBF24" opacity="0.57"/><circle cx="800.6" cy="416.8" r="1.5" fill="#FBBF24" opacity="0.50"/><circle cx="160.0" cy="274.3" r="0.4" fill="#FBBF24" opacity="0.59"/><circle cx="788.5" cy="5.9" r="0.7" fill="#FBBF24" opacity="0.64"/><circle cx="138.1" cy="267.1" r="1.9" fill="#FBBF24" opacity="0.52"/><circle cx="949.3" cy="180.2" r="1.1" fill="#FBBF24" opacity="0.17"/><circle cx="1118.6" cy="234.0" r="1.4" fill="#FBBF24" opacity="0.30"/><circle cx="1164.4" cy="384.1" r="2.0" fill="#FBBF24" opacity="0.59"/><circle cx="494.2" cy="552.7" r="1.2" fill="#FBBF24" opacity="0.56"/><circle cx="470.9" cy="828.8" r="0.5" fill="#FBBF24" opacity="0.39"/><circle cx="1079.7" cy="467.8" r="1.0" fill="#FBBF24" opacity="0.52"/><circle cx="794.6" cy="191.9" r="2.3" fill="#FBBF24" opacity="0.59"/><circle cx="845.4" cy="590.2" r="1.7" fill="#FBBF24" opacity="0.23"/><circle cx="683.8" cy="218.1" r="0.4" fill="#FBBF24" opacity="0.15"/><circle cx="250.6" cy="597.8" r="1.3" fill="#FBBF24" opacity="0.61"/><circle cx="642.1" cy="118.3" r="2.2" fill="#FBBF24" opacity="0.17"/><circle cx="776.8" cy="235.1" r="1.7" fill="#FBBF24" opacity="0.33"/><circle cx="862.2" cy="570.4" r="1.9" fill="#FBBF24" opacity="0.45"/><circle cx="661.1" cy="13.1" r="1.0" fill="#FBBF24" opacity="0.54"/><circle cx="958.7" cy="218.7" r="2.0" fill="#FBBF24" opacity="0.37"/><circle cx="1029.3" cy="709.6" r="1.2" fill="#FBBF24" opacity="0.43"/>
  <rect x="1" y="1" width="1198" height="898" rx="22" fill="none" stroke="rgba(255,255,255,0.10)" stroke-width="2"/>
  
  <text x="600" y="450" text-anchor="middle" dominant-baseline="central"
        font-family="'Space Grotesk', sans-serif" font-size="46" font-weight="600" fill="#E8EAED" opacity="0.92">
    Memory 8</text>
  <text x="600" y="502" text-anchor="middle"
        font-family="Inter, sans-serif" font-size="24" fill="#94A3B8">Drop memory8.jpg into public/assets/</text>
</svg>