<svg xmlns="http://www.w3.org/2000/svg" width="1200" height="900" viewBox="0 0 1200 900" fill="none">
  <defs>
    <filter id="b2" x="-30%" y="-30%" width="160%" height="160%"><feGaussianBlur stdDeviation="70"/></filter>
  </defs>
  <rect width="1200" height="900" fill="#0B0F19"/>
  <g filter="url(#b2)">
    <circle cx="320" cy="300" r="260" fill="#A855F7" opacity="0.30"/>
    <circle cx="870" cy="640" r="300" fill="#34D399" opacity="0.28"/>
    <circle cx="640" cy="180" r="180" fill="#A855F7" opacity="0.18"/></g>
  <circle cx="875.6" cy="518.6" r="2.4" fill="#FBBF24" opacity="0.42"/><circle cx="144.8" cy="797.4" r="1.0" fill="#FBBF24" opacity="0.18"/><circle cx="490.7" cy="272.5" r="2.1" fill="#FBBF24" opacity="0.59"/><circle cx="120.4" cy="666.2" r="1.9" fill="#FBBF24" opacity="0.18"/><circle cx="397.1" cy="267.2" r="1.7" fill="#FBBF24" opacity="0.64"/><circle cx="105.9" cy="131.2" r="0.6" fill="#FBBF24" opacity="0.39"/><circle cx="120.9" cy="80.4" r="2.4" fill="#FBBF24" opacity="0.59"/><circle cx="471.6" cy="703.6" r="2.4" fill="#FBBF24" opacity="0.36"/><circle cx="610.1" cy="556.5" r="1.7" fill="#FBBF24" opacity="0.41"/><circle cx="476.9" cy="261.3" r="0.8" fill="#FBBF24" opacity="0.49"/><circle cx="1168.4" cy="6.7" r="2.3" fill="#FBBF24" opacity="0.17"/><circle cx="403.1" cy="348.5" r="2.4" fill="#FBBF24" opacity="0.45"/><circle cx="788.4" cy="8.8" r="0.9" fill="#FBBF24" opacity="0.20"/><circle cx="887.3" cy="576.5" r="0.6" fill="#FBBF24" opacity="0.41"/><circle cx="285.0" cy="107.2" r="2.1" fill="#FBBF24" opacity="0.37"/><circle cx="655.5" cy="823.0" r="1.9" fill="#FBBF24" opacity="0.55"/><circle cx="428.5" cy="312.9" r="1.1" fill="#FBBF24" opacity="0.41"/><circle cx="1055.8" cy="432.5" r="2.2" fill="#FBBF24" opacity="0.49"/><circle cx="878.2" cy="603.9" r="0.8" fill="#FBBF24" opacity="0.39"/><circle cx="591.9" cy="716.0" r="0.7" fill="#FBBF24" opacity="0.50"/><circle cx="1115.5" cy="124.5" r="2.0" fill="#FBBF24" opacity="0.15"/><circle cx="1056.4" cy="851.4" r="1.4" fill="#FBBF24" opacity="0.54"/><circle cx="977.5" cy="585.8" r="1.0" fill="#FBBF24" opacity="0.52"/><circle cx="64.1" cy="683.1" r="0.7" fill="#FBBF24" opacity="0.18"/><circle cx="790.1" cy="365.7" r="0.6" fill="#FBBF24" opacity="0.34"/><circle cx="1185.3" cy="522.2" r="1.2" fill="#FBBF24" opacity="0.29"/><circle cx="1101.5" cy="8.5" r="2.0" fill="#FBBF24" opacity="0.42"/><circle cx="879.5" cy="646.5" r="2.2" fill="#FBBF24" opacity="0.63"/><circle cx="815.4" cy="225.4" r="0.6" fill="#FBBF24" opacity="0.16"/><circle cx="227.9" cy="500.5" r="0.8" fill="#FBBF24" opacity="0.19"/><circle cx="924.3" cy="494.1" r="1.1" fill="#FBBF24" opacity="0.22"/><circle cx="667.7" cy="295.1" r="0.6" fill="#FBBF24" opacity="0.46"/><circle cx="643.1" cy="59.1" r="0.7" fill="#FBBF24" opacity="0.33"/><circle cx="524.8" cy="508.3" r="0.8" fill="#FBBF24" opacity="0.47"/><circle cx="342.2" cy="431.6" r="0.6" fill="#FBBF24" opacity="0.51"/><circle cx="747.3" cy="184.4" r="1.1" fill="#FBBF24" opacity="0.17"/><circle cx="480.8" cy="389.2" r="0.7" fill="#FBBF24" opacity="0.20"/><circle cx="638.9" cy="334.7" r="1.9" fill="#FBBF24" opacity="0.16"/><circle cx="140.3" cy="576.4" r="1.1" fill="#FBBF24" opacity="0.55"/><circle cx="392.3" cy="736.7" r="2.3" fill="#FBBF24" opacity="0.24"/><circle cx="1157.9" cy="604.4" r="1.7" fill="#FBBF24" opacity="0.23"/><circle cx="822.2" cy="35.1" r="2.2" fill="#FBBF24" opacity="0.30"/><circle cx="1059.4" cy="350.9" r="2.5" fill="#FBBF24" opacity="0.43"/><circle cx="299.0" cy="40.9" r="1.5" fill="#FBBF24" opacity="0.56"/><circle cx="1193.0" cy="60.4" r="1.6" fill="#FBBF24" opacity="0.26"/><circle cx="882.0" cy="731.8" r="0.7" fill="#FBBF24" opacity="0.60"/><circle cx="62.4" cy="144.0" r="2.6" fill="#FBBF24" opacity="0.49"/><circle cx="852.7" cy="352.4" r="0.6" fill="#FBBF24" opacity="0.25"/><circle cx="660.3" cy="679.4" r="0.5" fill="#FBBF24" opacity="0.59"/><circle cx="48.1" cy="613.7" r="2.1" fill="#FBBF24" opacity="0.34"/>
  <rect x="1" y="1" width="1198" height="898" rx="22" fill="none" stroke="rgba(255,255,255,0.10)" stroke-width="2"/>
  <circle cx="600" cy="450" r="86" fill="rgba(11,15,25,0.55)" stroke="rgba(255,255,255,0.85)" stroke-width="3"/>
       <path d="M 572 408 L 652 450 L 572 492 Z" fill="#FFFFFF"/>
  <text x="600" y="810" text-anchor="middle" dominant-baseline="central"
        font-family="'Space Grotesk', sans-serif" font-size="46" font-weight="600" fill="#E8EAED" opacity="0.92">
    Sample clip</text>
  <text x="600" y="852" text-anchor="middle"
        font-family="Inter, sans-serif" font-size="24" fill="#94A3B8">Drop memory-clip.mp4 into public/assets/</text>
</svg>