<svg xmlns="http://www.w3.org/2000/svg" width="1200" height="900" viewBox="0 0 1200 900" fill="none">
  <defs>
    <filter id="b4" x="-30%" y="-30%" width="160%" height="160%"><feGaussianBlur stdDeviation="70"/></filter>
  </defs>
  <rect width="1200" height="900" fill="#0B0F19"/>
  <g filter="url(#b4)">
    <circle cx="440" cy="300" r="260" fill="#0EA5E9" opacity="0.30"/>
    <circle cx="790" cy="640" r="300" fill="#34D399" opacity="0.28"/>
    <circle cx="640" cy="180" r="180" fill="#0EA5E9" opacity="0.18"/></g>
  <circle cx="971.3" cy="223.3" r="1.5" fill="#FBBF24" opacity="0.63"/><circle cx="15.8" cy="11.3" r="1.1" fill="#FBBF24" opacity="0.54"/><circle cx="18.5" cy="240.1" r="2.5" fill="#FBBF24" opacity="0.60"/><circle cx="297.6" cy="865.3" r="0.6" fill="#FBBF24" opacity="0.49"/><circle cx="260.7" cy="8.9" r="2.5" fill="#FBBF24" opacity="0.22"/><circle cx="70.7" cy="459.9" r="0.7" fill="#FBBF24" opacity="0.48"/><circle cx="912.9" cy="573.9" r="0.9" fill="#FBBF24" opacity="0.21"/><circle cx="61.2" cy="173.1" r="0.4" fill="#FBBF24" opacity="0.55"/><circle cx="1145.2" cy="746.3" r="1.0" fill="#FBBF24" opacity="0.62"/><circle cx="17.0" cy="849.2" r="1.6" fill="#FBBF24" opacity="0.64"/><circle cx="217.1" cy="204.0" r="0.7" fill="#FBBF24" opacity="0.36"/><circle cx="442.0" cy="799.4" r="0.5" fill="#FBBF24" opacity="0.35"/><circle cx="810.0" cy="491.2" r="2.0" fill="#FBBF24" opacity="0.60"/><circle cx="328.7" cy="701.5" r="2.6" fill="#FBBF24" opacity="0.48"/><circle cx="1160.9" cy="319.2" r="0.7" fill="#FBBF24" opacity="0.50"/><circle cx="491.9" cy="99.9" r="1.3" fill="#FBBF24" opacity="0.44"/><circle cx="1195.8" cy="465.7" r="1.0" fill="#FBBF24" opacity="0.26"/><circle cx="502.1" cy="805.7" r="0.8" fill="#FBBF24" opacity="0.42"/><circle cx="1062.7" cy="275.2" r="1.1" fill="#FBBF24" opacity="0.48"/><circle cx="18.4" cy="96.6" r="1.7" fill="#FBBF24" opacity="0.51"/><circle cx="465.5" cy="158.8" r="2.3" fill="#FBBF24" opacity="0.43"/><circle cx="922.4" cy="717.2" r="0.5" fill="#FBBF24" opacity="0.55"/><circle cx="1196.6" cy="194.2" r="1.9" fill="#FBBF24" opacity="0.58"/><circle cx="651.1" cy="778.5" r="2.2" fill="#FBBF24" opacity="0.36"/><circle cx="871.0" cy="225.9" r="1.0" fill="#FBBF24" opacity="0.50"/><circle cx="730.4" cy="458.4" r="0.8" fill="#FBBF24" opacity="0.30"/><circle cx="659.0" cy="565.0" r="2.0" fill="#FBBF24" opacity="0.55"/><circle cx="508.5" cy="301.2" r="2.0" fill="#FBBF24" opacity="0.65"/><circle cx="619.7" cy="589.2" r="2.1" fill="#FBBF24" opacity="0.50"/><circle cx="89.0" cy="118.1" r="1.0" fill="#FBBF24" opacity="0.34"/><circle cx="634.8" cy="643.2" r="2.6" fill="#FBBF24" opacity="0.33"/><circle cx="464.6" cy="286.8" r="0.5" fill="#FBBF24" opacity="0.51"/><circle cx="941.3" cy="37.8" r="0.7" fill="#FBBF24" opacity="0.55"/><circle cx="850.1" cy="51.8" r="2.1" fill="#FBBF24" opacity="0.39"/><circle cx="1065.0" cy="151.0" r="2.1" fill="#FBBF24" opacity="0.17"/><circle cx="415.8" cy="24.3" r="2.5" fill="#FBBF24" opacity="0.52"/><circle cx="754.2" cy="27.1" r="2.1" fill="#FBBF24" opacity="0.15"/><circle cx="821.0" cy="781.9" r="1.7" fill="#FBBF24" opacity="0.32"/><circle cx="512.5" cy="677.4" r="1.3" fill="#FBBF24" opacity="0.59"/><circle cx="1147.2" cy="269.1" r="1.8" fill="#FBBF24" opacity="0.45"/><circle cx="532.6" cy="79.4" r="0.6" fill="#FBBF24" opacity="0.28"/><circle cx="831.5" cy="797.1" r="0.7" fill="#FBBF24" opacity="0.58"/><circle cx="429.2" cy="477.8" r="2.6" fill="#FBBF24" opacity="0.62"/><circle cx="999.7" cy="443.6" r="0.5" fill="#FBBF24" opacity="0.38"/><circle cx="972.7" cy="83.6" r="2.3" fill="#FBBF24" opacity="0.32"/><circle cx="600.0" cy="353.1" r="1.5" fill="#FBBF24" opacity="0.49"/><circle cx="622.3" cy="674.5" r="0.5" fill="#FBBF24" opacity="0.47"/><circle cx="536.0" cy="36.7" r="0.8" fill="#FBBF24" opacity="0.17"/><circle cx="59.7" cy="495.1" r="2.4" fill="#FBBF24" opacity="0.40"/><circle cx="200.5" cy="472.1" r="2.2" fill="#FBBF24" opacity="0.37"/>
  <rect x="1" y="1" width="1198" height="898" rx="22" fill="none" stroke="rgba(255,255,255,0.10)" stroke-width="2"/>
  
  <text x="600" y="450" text-anchor="middle" dominant-baseline="central"
        font-family="'Space Grotesk', sans-serif" font-size="46" font-weight="600" fill="#E8EAED" opacity="0.92">
    Memory 5</text>
  <text x="600" y="502" text-anchor="middle"
        font-family="Inter, sans-serif" font-size="24" fill="#94A3B8">Drop memory5.jpg into public/assets/</text>
</svg>