<svg xmlns="http://www.w3.org/2000/svg" width="1200" height="900" viewBox="0 0 1200 900" fill="none">
  <defs>
    <filter id="b5" x="-30%" y="-30%" width="160%" height="160%"><feGaussianBlur stdDeviation="70"/></filter>
  </defs>
  <rect width="1200" height="900" fill="#0B0F19"/>
  <g filter="url(#b5)">
    <circle cx="500" cy="300" r="260" fill="#FB7185" opacity="0.30"/>
    <circle cx="750" cy="640" r="300" fill="#FBBF24" opacity="0.28"/>
    <circle cx="640" cy="180" r="180" fill="#FB7185" opacity="0.18"/></g>
  <circle cx="1019.1" cy="75.6" r="1.0" fill="#FBBF24" opacity="0.24"/><circle cx="1151.3" cy="68.3" r="2.2" fill="#FBBF24" opacity="0.47"/><circle cx="982.4" cy="223.9" r="1.6" fill="#FBBF24" opacity="0.61"/><circle cx="986.2" cy="64.8" r="2.2" fill="#FBBF24" opacity="0.64"/><circle cx="792.5" cy="779.7" r="0.7" fill="#FBBF24" opacity="0.51"/><circle cx="653.2" cy="624.3" r="1.9" fill="#FBBF24" opacity="0.27"/><circle cx="108.9" cy="820.7" r="1.3" fill="#FBBF24" opacity="0.52"/><circle cx="1055.9" cy="357.8" r="0.5" fill="#FBBF24" opacity="0.64"/><circle cx="812.8" cy="391.3" r="1.8" fill="#FBBF24" opacity="0.47"/><circle cx="387.1" cy="243.2" r="2.0" fill="#FBBF24" opacity="0.21"/><circle cx="341.5" cy="302.6" r="1.0" fill="#FBBF24" opacity="0.20"/><circle cx="1061.4" cy="124.9" r="0.7" fill="#FBBF24" opacity="0.55"/><circle cx="220.8" cy="732.4" r="1.4" fill="#FBBF24" opacity="0.56"/><circle cx="649.4" cy="314.0" r="1.4" fill="#FBBF24" opacity="0.52"/><circle cx="998.9" cy="425.2" r="2.2" fill="#FBBF24" opacity="0.32"/><circle cx="410.1" cy="188.3" r="1.0" fill="#FBBF24" opacity="0.38"/><circle cx="379.4" cy="92.1" r="0.9" fill="#FBBF24" opacity="0.43"/><circle cx="225.3" cy="92.2" r="1.2" fill="#FBBF24" opacity="0.63"/><circle cx="555.0" cy="110.9" r="2.3" fill="#FBBF24" opacity="0.52"/><circle cx="331.7" cy="236.9" r="1.2" fill="#FBBF24" opacity="0.27"/><circle cx="740.5" cy="625.9" r="1.3" fill="#FBBF24" opacity="0.31"/><circle cx="255.5" cy="200.1" r="2.2" fill="#FBBF24" opacity="0.31"/><circle cx="106.2" cy="448.3" r="1.3" fill="#FBBF24" opacity="0.36"/><circle cx="944.6" cy="826.2" r="1.8" fill="#FBBF24" opacity="0.20"/><circle cx="311.4" cy="155.9" r="2.3" fill="#FBBF24" opacity="0.57"/><circle cx="502.9" cy="426.4" r="0.6" fill="#FBBF24" opacity="0.55"/><circle cx="437.7" cy="393.2" r="2.0" fill="#FBBF24" opacity="0.62"/><circle cx="323.0" cy="578.5" r="1.8" fill="#FBBF24" opacity="0.16"/><circle cx="1121.9" cy="771.2" r="0.6" fill="#FBBF24" opacity="0.17"/><circle cx="19.6" cy="826.9" r="1.2" fill="#FBBF24" opacity="0.42"/><circle cx="1090.1" cy="267.7" r="2.2" fill="#FBBF24" opacity="0.39"/><circle cx="363.1" cy="282.6" r="0.5" fill="#FBBF24" opacity="0.54"/><circle cx="490.4" cy="27.2" r="0.7" fill="#FBBF24" opacity="0.41"/><circle cx="1012.7" cy="723.6" r="0.6" fill="#FBBF24" opacity="0.60"/><circle cx="226.5" cy="460.7" r="1.8" fill="#FBBF24" opacity="0.51"/><circle cx="250.1" cy="394.2" r="2.1" fill="#FBBF24" opacity="0.45"/><circle cx="891.0" cy="746.1" r="0.6" fill="#FBBF24" opacity="0.63"/><circle cx="312.1" cy="105.5" r="1.5" fill="#FBBF24" opacity="0.40"/><circle cx="98.6" cy="727.8" r="2.5" fill="#FBBF24" opacity="0.35"/><circle cx="324.7" cy="35.3" r="1.5" fill="#FBBF24" opacity="0.31"/><circle cx="219.9" cy="716.9" r="1.2" fill="#FBBF24" opacity="0.55"/><circle cx="836.1" cy="728.2" r="1.1" fill="#FBBF24" opacity="0.46"/><circle cx="114.0" cy="91.2" r="2.6" fill="#FBBF24" opacity="0.46"/><circle cx="750.0" cy="195.0" r="2.2" fill="#FBBF24" opacity="0.29"/><circle cx="862.5" cy="95.1" r="1.5" fill="#FBBF24" opacity="0.61"/><circle cx="1058.9" cy="613.8" r="0.9" fill="#FBBF24" opacity="0.44"/><circle cx="302.3" cy="39.8" r="1.7" fill="#FBBF24" opacity="0.46"/><circle cx="977.7" cy="328.8" r="0.9" fill="#FBBF24" opacity="0.62"/><circle cx="359.3" cy="403.0" r="2.3" fill="#FBBF24" opacity="0.56"/><circle cx="876.8" cy="851.2" r="1.1" fill="#FBBF24" opacity="0.39"/>
  <rect x="1" y="1" width="1198" height="898" rx="22" fill="none" stroke="rgba(255,255,255,0.10)" stroke-width="2"/>
  
  <text x="600" y="450" text-anchor="middle" dominant-baseline="central"
        font-family="'Space Grotesk', sans-serif" font-size="46" font-weight="600" fill="#E8EAED" opacity="0.92">
    Memory 6</text>
  <text x="600" y="502" text-anchor="middle"
        font-family="Inter, sans-serif" font-size="24" fill="#94A3B8">Drop memory6.jpg into public/assets/</text>
</svg>