<svg xmlns="http://www.w3.org/2000/svg" width="1200" height="900" viewBox="0 0 1200 900" fill="none">
  <defs>
    <filter id="b6" x="-30%" y="-30%" width="160%" height="160%"><feGaussianBlur stdDeviation="70"/></filter>
  </defs>
  <rect width="1200" height="900" fill="#0B0F19"/>
  <g filter="url(#b6)">
    <circle cx="560" cy="300" r="260" fill="#FBBF24" opacity="0.30"/>
    <circle cx="710" cy="640" r="300" fill="#F97316" opacity="0.28"/>
    <circle cx="640" cy="180" r="180" fill="#FBBF24" opacity="0.18"/></g>
  <circle cx="1066.9" cy="827.9" r="0.6" fill="#FBBF24" opacity="0.35"/><circle cx="1086.8" cy="125.2" r="1.2" fill="#FBBF24" opacity="0.40"/><circle cx="746.2" cy="207.7" r="0.7" fill="#FBBF24" opacity="0.62"/><circle cx="474.8" cy="164.3" r="1.5" fill="#FBBF24" opacity="0.29"/><circle cx="124.3" cy="650.6" r="1.1" fill="#FBBF24" opacity="0.30"/><circle cx="35.6" cy="788.6" r="0.8" fill="#FBBF24" opacity="0.57"/><circle cx="504.8" cy="167.4" r="1.6" fill="#FBBF24" opacity="0.33"/><circle cx="850.7" cy="542.5" r="0.6" fill="#FBBF24" opacity="0.24"/><circle cx="480.4" cy="36.2" r="2.6" fill="#FBBF24" opacity="0.33"/><circle cx="757.1" cy="537.2" r="2.4" fill="#FBBF24" opacity="0.29"/><circle cx="465.9" cy="401.2" r="1.3" fill="#FBBF24" opacity="0.54"/><circle cx="480.9" cy="350.4" r="0.9" fill="#FBBF24" opacity="0.24"/><circle cx="831.6" cy="73.6" r="0.9" fill="#FBBF24" opacity="0.51"/><circle cx="970.1" cy="826.5" r="2.3" fill="#FBBF24" opacity="0.56"/><circle cx="836.9" cy="531.3" r="1.5" fill="#FBBF24" opacity="0.64"/><circle cx="328.4" cy="276.7" r="0.8" fill="#FBBF24" opacity="0.32"/><circle cx="763.1" cy="618.5" r="0.9" fill="#FBBF24" opacity="0.60"/><circle cx="1148.4" cy="278.8" r="1.6" fill="#FBBF24" opacity="0.35"/><circle cx="47.3" cy="846.5" r="1.3" fill="#FBBF24" opacity="0.56"/><circle cx="645.0" cy="377.2" r="0.6" fill="#FBBF24" opacity="0.52"/><circle cx="1015.5" cy="193.0" r="2.5" fill="#FBBF24" opacity="0.20"/><circle cx="788.5" cy="582.9" r="1.7" fill="#FBBF24" opacity="0.56"/><circle cx="215.8" cy="702.5" r="0.7" fill="#FBBF24" opacity="0.64"/><circle cx="38.2" cy="873.9" r="1.5" fill="#FBBF24" opacity="0.54"/><circle cx="951.9" cy="86.0" r="1.4" fill="#FBBF24" opacity="0.15"/><circle cx="275.5" cy="394.5" r="0.4" fill="#FBBF24" opacity="0.30"/><circle cx="216.4" cy="221.4" r="2.0" fill="#FBBF24" opacity="0.19"/><circle cx="137.5" cy="855.8" r="1.7" fill="#FBBF24" opacity="0.17"/><circle cx="424.1" cy="53.1" r="1.3" fill="#FBBF24" opacity="0.33"/><circle cx="1150.1" cy="635.7" r="1.3" fill="#FBBF24" opacity="0.49"/><circle cx="345.3" cy="792.2" r="1.9" fill="#FBBF24" opacity="0.44"/><circle cx="261.5" cy="278.5" r="0.5" fill="#FBBF24" opacity="0.57"/><circle cx="39.5" cy="16.5" r="0.7" fill="#FBBF24" opacity="0.28"/><circle cx="1175.4" cy="495.4" r="1.3" fill="#FBBF24" opacity="0.31"/><circle cx="587.9" cy="770.5" r="1.5" fill="#FBBF24" opacity="0.34"/><circle cx="84.3" cy="764.1" r="1.7" fill="#FBBF24" opacity="0.37"/><circle cx="1027.7" cy="565.1" r="1.3" fill="#FBBF24" opacity="0.61"/><circle cx="1003.1" cy="329.1" r="1.4" fill="#FBBF24" opacity="0.48"/><circle cx="884.8" cy="778.3" r="1.5" fill="#FBBF24" opacity="0.62"/><circle cx="702.2" cy="701.6" r="1.3" fill="#FBBF24" opacity="0.16"/><circle cx="1107.3" cy="454.4" r="1.7" fill="#FBBF24" opacity="0.32"/><circle cx="840.8" cy="659.2" r="1.4" fill="#FBBF24" opacity="0.35"/><circle cx="998.9" cy="604.7" r="0.4" fill="#FBBF24" opacity="0.31"/><circle cx="500.3" cy="846.4" r="1.7" fill="#FBBF24" opacity="0.20"/><circle cx="752.3" cy="106.7" r="0.7" fill="#FBBF24" opacity="0.39"/><circle cx="317.9" cy="874.4" r="2.4" fill="#FBBF24" opacity="0.38"/><circle cx="1182.2" cy="305.1" r="0.7" fill="#FBBF24" opacity="0.45"/><circle cx="219.4" cy="620.9" r="1.0" fill="#FBBF24" opacity="0.58"/><circle cx="659.0" cy="310.9" r="2.1" fill="#FBBF24" opacity="0.21"/><circle cx="353.0" cy="330.4" r="2.3" fill="#FBBF24" opacity="0.41"/>
  <rect x="1" y="1" width="1198" height="898" rx="22" fill="none" stroke="rgba(255,255,255,0.10)" stroke-width="2"/>
  
  <text x="600" y="450" text-anchor="middle" dominant-baseline="central"
        font-family="'Space Grotesk', sans-serif" font-size="46" font-weight="600" fill="#E8EAED" opacity="0.92">
    Memory 7</text>
  <text x="600" y="502" text-anchor="middle"
        font-family="Inter, sans-serif" font-size="24" fill="#94A3B8">Drop memory7.jpg into public/assets/</text>
</svg>