<svg xmlns="http://www.w3.org/2000/svg" width="1200" height="900" viewBox="0 0 1200 900" fill="none">
  <defs>
    <filter id="b8" x="-30%" y="-30%" width="160%" height="160%"><feGaussianBlur stdDeviation="70"/></filter>
  </defs>
  <rect width="1200" height="900" fill="#0B0F19"/>
  <g filter="url(#b8)">
    <circle cx="680" cy="300" r="260" fill="#A855F7" opacity="0.30"/>
    <circle cx="630" cy="640" r="300" fill="#34D399" opacity="0.28"/>
    <circle cx="640" cy="180" r="180" fill="#A855F7" opacity="0.18"/></g>
  <circle cx="1162.6" cy="532.5" r="1.9" fill="#FBBF24" opacity="0.56"/><circle cx="957.8" cy="239.1" r="1.3" fill="#FBBF24" opacity="0.26"/><circle cx="274.0" cy="175.3" r="1.0" fill="#FBBF24" opacity="0.63"/><circle cx="652.0" cy="363.4" r="2.4" fill="#FBBF24" opacity="0.59"/><circle cx="1187.9" cy="392.2" r="1.8" fill="#FBBF24" opacity="0.38"/><circle cx="0.4" cy="217.3" r="0.9" fill="#FBBF24" opacity="0.15"/><circle cx="96.8" cy="661.0" r="2.3" fill="#FBBF24" opacity="0.44"/><circle cx="440.2" cy="12.0" r="0.8" fill="#FBBF24" opacity="0.43"/><circle cx="1015.6" cy="226.0" r="2.0" fill="#FBBF24" opacity="0.54"/><circle cx="297.3" cy="225.2" r="1.0" fill="#FBBF24" opacity="0.44"/><circle cx="714.7" cy="598.4" r="1.8" fill="#FBBF24" opacity="0.23"/><circle cx="519.8" cy="801.3" r="1.2" fill="#FBBF24" opacity="0.64"/><circle cx="853.3" cy="556.1" r="2.0" fill="#FBBF24" opacity="0.41"/><circle cx="411.4" cy="51.5" r="2.1" fill="#FBBF24" opacity="0.63"/><circle cx="512.8" cy="743.3" r="2.3" fill="#FBBF24" opacity="0.27"/><circle cx="164.8" cy="453.6" r="2.4" fill="#FBBF24" opacity="0.21"/><circle cx="330.4" cy="771.3" r="0.8" fill="#FBBF24" opacity="0.45"/><circle cx="594.7" cy="652.0" r="2.4" fill="#FBBF24" opacity="0.27"/><circle cx="231.9" cy="517.8" r="1.5" fill="#FBBF24" opacity="0.65"/><circle cx="71.5" cy="657.7" r="1.6" fill="#FBBF24" opacity="0.53"/><circle cx="365.5" cy="227.3" r="0.6" fill="#FBBF24" opacity="0.48"/><circle cx="654.5" cy="448.7" r="0.8" fill="#FBBF24" opacity="0.57"/><circle cx="434.9" cy="310.8" r="1.6" fill="#FBBF24" opacity="0.21"/><circle cx="625.2" cy="69.3" r="0.8" fill="#FBBF24" opacity="0.22"/><circle cx="1032.8" cy="846.2" r="1.8" fill="#FBBF24" opacity="0.30"/><circle cx="1020.6" cy="330.6" r="2.2" fill="#FBBF24" opacity="0.31"/><circle cx="973.8" cy="777.9" r="2.0" fill="#FBBF24" opacity="0.33"/><circle cx="966.5" cy="510.5" r="1.4" fill="#FBBF24" opacity="0.19"/><circle cx="228.4" cy="417.0" r="0.6" fill="#FBBF24" opacity="0.17"/><circle cx="1011.3" cy="253.3" r="1.5" fill="#FBBF24" opacity="0.65"/><circle cx="55.8" cy="41.3" r="1.2" fill="#FBBF24" opacity="0.55"/><circle cx="58.5" cy="270.1" r="2.6" fill="#FBBF24" opacity="0.62"/><circle cx="337.6" cy="895.3" r="0.7" fill="#FBBF24" opacity="0.50"/><circle cx="300.7" cy="38.9" r="2.6" fill="#FBBF24" opacity="0.24"/><circle cx="110.7" cy="489.9" r="0.8" fill="#FBBF24" opacity="0.50"/><circle cx="952.9" cy="603.9" r="1.0" fill="#FBBF24" opacity="0.23"/><circle cx="101.2" cy="203.1" r="0.5" fill="#FBBF24" opacity="0.56"/><circle cx="1185.2" cy="776.3" r="1.1" fill="#FBBF24" opacity="0.63"/><circle cx="57.0" cy="879.2" r="1.7" fill="#FBBF24" opacity="0.15"/><circle cx="257.1" cy="234.0" r="0.8" fill="#FBBF24" opacity="0.37"/><circle cx="482.0" cy="829.4" r="0.6" fill="#FBBF24" opacity="0.36"/><circle cx="850.0" cy="521.2" r="2.1" fill="#FBBF24" opacity="0.62"/><circle cx="368.7" cy="731.5" r="0.5" fill="#FBBF24" opacity="0.50"/><circle cx="0.9" cy="349.2" r="0.8" fill="#FBBF24" opacity="0.52"/><circle cx="531.9" cy="129.9" r="1.4" fill="#FBBF24" opacity="0.45"/><circle cx="35.8" cy="495.7" r="1.1" fill="#FBBF24" opacity="0.27"/><circle cx="542.1" cy="835.7" r="0.9" fill="#FBBF24" opacity="0.44"/><circle cx="1102.7" cy="305.2" r="1.1" fill="#FBBF24" opacity="0.49"/><circle cx="58.4" cy="126.6" r="1.8" fill="#FBBF24" opacity="0.53"/><circle cx="505.5" cy="188.8" r="2.3" fill="#FBBF24" opacity="0.44"/>
  <rect x="1" y="1" width="1198" height="898" rx="22" fill="none" stroke="rgba(255,255,255,0.10)" stroke-width="2"/>
  
  <text x="600" y="450" text-anchor="middle" dominant-baseline="central"
        font-family="'Space Grotesk', sans-serif" font-size="46" font-weight="600" fill="#E8EAED" opacity="0.92">
    Memory 9</text>
  <text x="600" y="502" text-anchor="middle"
        font-family="Inter, sans-serif" font-size="24" fill="#94A3B8">Drop memory9.jpg into public/assets/</text>
</svg>