<svg xmlns="http://www.w3.org/2000/svg" width="1200" height="900" viewBox="0 0 1200 900" fill="none">
  <defs>
    <filter id="b0" x="-30%" y="-30%" width="160%" height="160%"><feGaussianBlur stdDeviation="70"/></filter>
  </defs>
  <rect width="1200" height="900" fill="#0B0F19"/>
  <g filter="url(#b0)">
    <circle cx="200" cy="300" r="260" fill="#FBBF24" opacity="0.30"/>
    <circle cx="950" cy="640" r="300" fill="#F97316" opacity="0.28"/>
    <circle cx="640" cy="180" r="180" fill="#FBBF24" opacity="0.18"/></g>
  <circle cx="779.9" cy="814.0" r="1.1" fill="#FBBF24" opacity="0.20"/><circle cx="273.8" cy="683.5" r="0.8" fill="#FBBF24" opacity="0.31"/><circle cx="962.9" cy="304.9" r="1.8" fill="#FBBF24" opacity="0.57"/><circle cx="1143.3" cy="467.1" r="1.1" fill="#FBBF24" opacity="0.38"/><circle cx="533.5" cy="525.5" r="1.0" fill="#FBBF24" opacity="0.56"/><circle cx="141.1" cy="702.5" r="0.5" fill="#FBBF24" opacity="0.31"/><circle cx="528.9" cy="486.9" r="1.7" fill="#FBBF24" opacity="0.48"/><circle cx="882.1" cy="334.2" r="2.2" fill="#FBBF24" opacity="0.17"/><circle cx="74.9" cy="366.7" r="2.3" fill="#FBBF24" opacity="0.19"/><circle cx="936.7" cy="573.3" r="2.3" fill="#FBBF24" opacity="0.34"/><circle cx="919.6" cy="709.5" r="1.7" fill="#FBBF24" opacity="0.49"/><circle cx="364.2" cy="797.6" r="2.1" fill="#FBBF24" opacity="0.56"/><circle cx="766.8" cy="426.4" r="2.0" fill="#FBBF24" opacity="0.29"/><circle cx="245.9" cy="451.5" r="0.9" fill="#FBBF24" opacity="0.34"/><circle cx="609.1" cy="795.1" r="1.3" fill="#FBBF24" opacity="0.24"/><circle cx="819.1" cy="646.2" r="2.4" fill="#FBBF24" opacity="0.17"/><circle cx="861.2" cy="160.2" r="1.2" fill="#FBBF24" opacity="0.56"/><circle cx="409.5" cy="59.3" r="1.4" fill="#FBBF24" opacity="0.57"/><circle cx="693.6" cy="32.6" r="0.6" fill="#FBBF24" opacity="0.30"/><circle cx="1165.3" cy="435.5" r="1.9" fill="#FBBF24" opacity="0.49"/><circle cx="565.5" cy="90.2" r="1.7" fill="#FBBF24" opacity="0.38"/><circle cx="1190.3" cy="85.7" r="2.3" fill="#FBBF24" opacity="0.54"/><circle cx="758.4" cy="77.5" r="2.3" fill="#FBBF24" opacity="0.46"/><circle cx="677.0" cy="587.8" r="1.4" fill="#FBBF24" opacity="0.50"/><circle cx="709.3" cy="505.5" r="2.4" fill="#FBBF24" opacity="0.19"/><circle cx="440.3" cy="586.1" r="1.6" fill="#FBBF24" opacity="0.29"/><circle cx="344.1" cy="352.0" r="2.0" fill="#FBBF24" opacity="0.28"/><circle cx="50.4" cy="91.9" r="2.5" fill="#FBBF24" opacity="0.61"/><circle cx="1011.1" cy="761.5" r="1.3" fill="#FBBF24" opacity="0.33"/><circle cx="366.8" cy="882.9" r="0.5" fill="#FBBF24" opacity="0.53"/><circle cx="13.8" cy="345.0" r="1.8" fill="#FBBF24" opacity="0.61"/><circle cx="870.8" cy="303.4" r="0.7" fill="#FBBF24" opacity="0.41"/><circle cx="345.0" cy="80.4" r="0.7" fill="#FBBF24" opacity="0.60"/><circle cx="199.4" cy="64.8" r="1.7" fill="#FBBF24" opacity="0.55"/><circle cx="819.3" cy="712.1" r="1.3" fill="#FBBF24" opacity="0.35"/><circle cx="1078.7" cy="344.6" r="1.8" fill="#FBBF24" opacity="0.32"/><circle cx="207.3" cy="751.2" r="1.6" fill="#FBBF24" opacity="0.24"/><circle cx="456.8" cy="787.4" r="2.2" fill="#FBBF24" opacity="0.50"/><circle cx="968.1" cy="475.5" r="0.9" fill="#FBBF24" opacity="0.52"/><circle cx="837.3" cy="304.3" r="0.6" fill="#FBBF24" opacity="0.53"/><circle cx="583.2" cy="229.4" r="0.6" fill="#FBBF24" opacity="0.19"/><circle cx="812.9" cy="173.0" r="1.6" fill="#FBBF24" opacity="0.53"/><circle cx="489.6" cy="224.1" r="2.5" fill="#FBBF24" opacity="0.24"/><circle cx="798.4" cy="538.1" r="2.4" fill="#FBBF24" opacity="0.25"/><circle cx="213.4" cy="37.3" r="0.9" fill="#FBBF24" opacity="0.19"/><circle cx="1164.1" cy="210.5" r="2.0" fill="#FBBF24" opacity="0.21"/><circle cx="702.6" cy="513.4" r="2.4" fill="#FBBF24" opacity="0.51"/><circle cx="1169.4" cy="668.1" r="0.5" fill="#FBBF24" opacity="0.34"/><circle cx="60.9" cy="863.6" r="0.8" fill="#FBBF24" opacity="0.27"/><circle cx="1095.6" cy="755.4" r="2.0" fill="#FBBF24" opacity="0.30"/>
  <rect x="1" y="1" width="1198" height="898" rx="22" fill="none" stroke="rgba(255,255,255,0.10)" stroke-width="2"/>
  
  <text x="600" y="450" text-anchor="middle" dominant-baseline="central"
        font-family="'Space Grotesk', sans-serif" font-size="46" font-weight="600" fill="#E8EAED" opacity="0.92">
    Memory 1</text>
  <text x="600" y="502" text-anchor="middle"
        font-family="Inter, sans-serif" font-size="24" fill="#94A3B8">Drop memory1.jpg into public/assets/</text>
</svg>