<svg xmlns="http://www.w3.org/2000/svg" width="1200" height="900" viewBox="0 0 1200 900" fill="none">
  <defs>
    <filter id="b1" x="-30%" y="-30%" width="160%" height="160%"><feGaussianBlur stdDeviation="70"/></filter>
  </defs>
  <rect width="1200" height="900" fill="#0B0F19"/>
  <g filter="url(#b1)">
    <circle cx="260" cy="300" r="260" fill="#34D399" opacity="0.30"/>
    <circle cx="910" cy="640" r="300" fill="#0EA5E9" opacity="0.28"/>
    <circle cx="640" cy="180" r="180" fill="#34D399" opacity="0.18"/></g>
  <circle cx="827.7" cy="666.3" r="0.6" fill="#FBBF24" opacity="0.31"/><circle cx="209.3" cy="740.5" r="2.0" fill="#FBBF24" opacity="0.24"/><circle cx="726.8" cy="288.7" r="0.8" fill="#FBBF24" opacity="0.58"/><circle cx="631.9" cy="566.6" r="2.6" fill="#FBBF24" opacity="0.53"/><circle cx="1065.3" cy="396.4" r="1.3" fill="#FBBF24" opacity="0.35"/><circle cx="723.5" cy="866.8" r="1.6" fill="#FBBF24" opacity="0.60"/><circle cx="924.9" cy="733.6" r="2.1" fill="#FBBF24" opacity="0.29"/><circle cx="676.9" cy="518.9" r="2.3" fill="#FBBF24" opacity="0.26"/><circle cx="942.5" cy="11.6" r="0.9" fill="#FBBF24" opacity="0.55"/><circle cx="106.8" cy="867.3" r="0.5" fill="#FBBF24" opacity="0.41"/><circle cx="1044.0" cy="808.1" r="2.0" fill="#FBBF24" opacity="0.33"/><circle cx="983.6" cy="123.0" r="2.3" fill="#FBBF24" opacity="0.26"/><circle cx="177.6" cy="667.6" r="1.5" fill="#FBBF24" opacity="0.24"/><circle cx="566.6" cy="64.0" r="1.9" fill="#FBBF24" opacity="0.38"/><circle cx="447.0" cy="1.1" r="0.6" fill="#FBBF24" opacity="0.56"/><circle cx="737.3" cy="734.6" r="2.2" fill="#FBBF24" opacity="0.61"/><circle cx="44.8" cy="686.6" r="1.1" fill="#FBBF24" opacity="0.24"/><circle cx="132.6" cy="245.9" r="1.8" fill="#FBBF24" opacity="0.28"/><circle cx="185.9" cy="768.2" r="1.8" fill="#FBBF24" opacity="0.35"/><circle cx="278.6" cy="575.8" r="1.3" fill="#FBBF24" opacity="0.25"/><circle cx="840.5" cy="557.4" r="0.7" fill="#FBBF24" opacity="0.27"/><circle cx="523.3" cy="468.6" r="1.8" fill="#FBBF24" opacity="0.29"/><circle cx="867.9" cy="331.6" r="1.6" fill="#FBBF24" opacity="0.24"/><circle cx="970.5" cy="635.5" r="1.0" fill="#FBBF24" opacity="0.34"/><circle cx="149.7" cy="435.6" r="1.5" fill="#FBBF24" opacity="0.27"/><circle cx="212.8" cy="554.2" r="1.4" fill="#FBBF24" opacity="0.54"/><circle cx="122.8" cy="180.2" r="2.0" fill="#FBBF24" opacity="0.35"/><circle cx="1064.9" cy="369.2" r="2.4" fill="#FBBF24" opacity="0.62"/><circle cx="313.2" cy="43.4" r="2.1" fill="#FBBF24" opacity="0.50"/><circle cx="297.3" cy="691.7" r="0.7" fill="#FBBF24" opacity="0.61"/><circle cx="469.1" cy="869.5" r="1.4" fill="#FBBF24" opacity="0.17"/><circle cx="769.2" cy="299.3" r="0.7" fill="#FBBF24" opacity="0.43"/><circle cx="1094.1" cy="69.8" r="0.7" fill="#FBBF24" opacity="0.46"/><circle cx="362.1" cy="736.5" r="2.4" fill="#FBBF24" opacity="0.26"/><circle cx="1180.8" cy="121.8" r="0.9" fill="#FBBF24" opacity="0.18"/><circle cx="913.0" cy="714.5" r="1.4" fill="#FBBF24" opacity="0.24"/><circle cx="344.0" cy="570.2" r="2.2" fill="#FBBF24" opacity="0.22"/><circle cx="1147.9" cy="111.0" r="2.1" fill="#FBBF24" opacity="0.58"/><circle cx="554.2" cy="526.0" r="2.1" fill="#FBBF24" opacity="0.29"/><circle cx="14.8" cy="70.5" r="2.5" fill="#FBBF24" opacity="0.38"/><circle cx="270.5" cy="866.9" r="1.2" fill="#FBBF24" opacity="0.46"/><circle cx="817.6" cy="104.1" r="1.9" fill="#FBBF24" opacity="0.42"/><circle cx="174.5" cy="737.5" r="2.5" fill="#FBBF24" opacity="0.58"/><circle cx="548.7" cy="289.5" r="1.9" fill="#FBBF24" opacity="0.15"/><circle cx="103.2" cy="48.8" r="2.4" fill="#FBBF24" opacity="0.48"/><circle cx="423.1" cy="471.2" r="1.4" fill="#FBBF24" opacity="0.15"/><circle cx="382.5" cy="778.7" r="1.4" fill="#FBBF24" opacity="0.50"/><circle cx="411.0" cy="60.3" r="0.6" fill="#FBBF24" opacity="0.29"/><circle cx="360.6" cy="771.5" r="0.7" fill="#FBBF24" opacity="0.43"/><circle cx="571.8" cy="234.6" r="1.0" fill="#FBBF24" opacity="0.32"/>
  <rect x="1" y="1" width="1198" height="898" rx="22" fill="none" stroke="rgba(255,255,255,0.10)" stroke-width="2"/>
  
  <text x="600" y="450" text-anchor="middle" dominant-baseline="central"
        font-family="'Space Grotesk', sans-serif" font-size="46" font-weight="600" fill="#E8EAED" opacity="0.92">
    Memory 2</text>
  <text x="600" y="502" text-anchor="middle"
        font-family="Inter, sans-serif" font-size="24" fill="#94A3B8">Drop memory2.jpg into public/assets/</text>
</svg>