<svg xmlns="http://www.w3.org/2000/svg" width="1200" height="900" viewBox="0 0 1200 900" fill="none">
  <defs>
    <filter id="b3" x="-30%" y="-30%" width="160%" height="160%"><feGaussianBlur stdDeviation="70"/></filter>
  </defs>
  <rect width="1200" height="900" fill="#0B0F19"/>
  <g filter="url(#b3)">
    <circle cx="380" cy="300" r="260" fill="#F472B6" opacity="0.30"/>
    <circle cx="830" cy="640" r="300" fill="#FBBF24" opacity="0.28"/>
    <circle cx="640" cy="180" r="180" fill="#F472B6" opacity="0.18"/></g>
  <circle cx="923.4" cy="370.9" r="1.9" fill="#FBBF24" opacity="0.52"/><circle cx="80.3" cy="854.4" r="2.1" fill="#FBBF24" opacity="0.61"/><circle cx="254.6" cy="256.3" r="1.2" fill="#FBBF24" opacity="0.59"/><circle cx="809.0" cy="765.7" r="1.3" fill="#FBBF24" opacity="0.33"/><circle cx="928.9" cy="138.0" r="2.1" fill="#FBBF24" opacity="0.43"/><circle cx="688.3" cy="295.6" r="1.8" fill="#FBBF24" opacity="0.19"/><circle cx="516.9" cy="327.1" r="0.6" fill="#FBBF24" opacity="0.40"/><circle cx="266.4" cy="888.4" r="2.5" fill="#FBBF24" opacity="0.45"/><circle cx="277.6" cy="201.4" r="2.5" fill="#FBBF24" opacity="0.26"/><circle cx="846.9" cy="555.2" r="1.2" fill="#FBBF24" opacity="0.56"/><circle cx="92.8" cy="105.4" r="2.6" fill="#FBBF24" opacity="0.51"/><circle cx="1022.5" cy="574.0" r="2.6" fill="#FBBF24" opacity="0.15"/><circle cx="199.2" cy="250.0" r="2.6" fill="#FBBF24" opacity="0.65"/><circle cx="8.0" cy="189.0" r="1.6" fill="#FBBF24" opacity="0.45"/><circle cx="123.0" cy="213.2" r="1.4" fill="#FBBF24" opacity="0.19"/><circle cx="573.7" cy="11.5" r="1.6" fill="#FBBF24" opacity="0.49"/><circle cx="812.1" cy="839.3" r="1.0" fill="#FBBF24" opacity="0.58"/><circle cx="778.9" cy="619.1" r="2.6" fill="#FBBF24" opacity="0.21"/><circle cx="370.4" cy="439.6" r="2.0" fill="#FBBF24" opacity="0.43"/><circle cx="905.2" cy="856.3" r="2.3" fill="#FBBF24" opacity="0.26"/><circle cx="190.5" cy="591.6" r="1.0" fill="#FBBF24" opacity="0.54"/><circle cx="389.4" cy="334.3" r="0.9" fill="#FBBF24" opacity="0.30"/><circle cx="1087.1" cy="840.0" r="2.6" fill="#FBBF24" opacity="0.30"/><circle cx="357.6" cy="730.8" r="2.5" fill="#FBBF24" opacity="0.52"/><circle cx="230.6" cy="295.8" r="1.9" fill="#FBBF24" opacity="0.42"/><circle cx="957.9" cy="490.3" r="1.0" fill="#FBBF24" opacity="0.55"/><circle cx="880.2" cy="736.7" r="2.0" fill="#FBBF24" opacity="0.48"/><circle cx="694.0" cy="23.9" r="2.1" fill="#FBBF24" opacity="0.64"/><circle cx="117.6" cy="407.3" r="1.3" fill="#FBBF24" opacity="0.33"/><circle cx="158.5" cy="309.3" r="0.9" fill="#FBBF24" opacity="0.26"/><circle cx="179.6" cy="118.6" r="0.7" fill="#FBBF24" opacity="0.28"/><circle cx="566.1" cy="291.0" r="0.6" fill="#FBBF24" opacity="0.49"/><circle cx="192.2" cy="48.5" r="0.7" fill="#FBBF24" opacity="0.19"/><circle cx="687.4" cy="280.1" r="1.5" fill="#FBBF24" opacity="0.18"/><circle cx="703.6" cy="741.3" r="2.5" fill="#FBBF24" opacity="0.34"/><circle cx="581.5" cy="554.4" r="0.7" fill="#FBBF24" opacity="0.60"/><circle cx="617.5" cy="208.2" r="1.4" fill="#FBBF24" opacity="0.17"/><circle cx="130.0" cy="558.3" r="1.8" fill="#FBBF24" opacity="0.24"/><circle cx="926.4" cy="626.9" r="2.3" fill="#FBBF24" opacity="0.32"/><circle cx="769.8" cy="502.9" r="2.0" fill="#FBBF24" opacity="0.59"/><circle cx="845.2" cy="341.9" r="2.3" fill="#FBBF24" opacity="0.50"/><circle cx="826.8" cy="866.1" r="2.6" fill="#FBBF24" opacity="0.19"/><circle cx="744.3" cy="864.4" r="2.5" fill="#FBBF24" opacity="0.27"/><circle cx="49.4" cy="692.3" r="1.0" fill="#FBBF24" opacity="0.47"/><circle cx="1082.8" cy="72.0" r="0.8" fill="#FBBF24" opacity="0.54"/><circle cx="141.0" cy="92.5" r="2.2" fill="#FBBF24" opacity="0.55"/><circle cx="942.4" cy="409.2" r="1.5" fill="#FBBF24" opacity="0.48"/><circle cx="94.4" cy="644.5" r="0.7" fill="#FBBF24" opacity="0.21"/><circle cx="960.0" cy="587.2" r="2.6" fill="#FBBF24" opacity="0.24"/><circle cx="724.3" cy="92.9" r="1.0" fill="#FBBF24" opacity="0.36"/>
  <rect x="1" y="1" width="1198" height="898" rx="22" fill="none" stroke="rgba(255,255,255,0.10)" stroke-width="2"/>
  
  <text x="600" y="450" text-anchor="middle" dominant-baseline="central"
        font-family="'Space Grotesk', sans-serif" font-size="46" font-weight="600" fill="#E8EAED" opacity="0.92">
    Memory 4</text>
  <text x="600" y="502" text-anchor="middle"
        font-family="Inter, sans-serif" font-size="24" fill="#94A3B8">Drop memory4.jpg into public/assets/</text>
</svg>